Alegreya Sans-Thin Italic.ufo
<glyph name="percent" format="1">
  <advance width="799"/>
  <unicode hex="0025"/>
  <outline>
    <contour>
      <point x="162" y="516" type="move"/>
    </contour>
    <component base="zero.numr" xOffset="2" yOffset="54" yScale="0.92"/>
    <component base="fraction" xOffset="375"/>
    <component base="zero.dnom" xOffset="421" yScale="0.92"/>
  </outline>
</glyph>
<glyph name="C" format="1">
  <advance width="497"/>
  <unicode hex="0043"/>
  <outline>
    <contour>
      <point x="163" y="641"/>
      <point x="55" y="493"/>
      <point x="55" y="251" type="curve" smooth="yes"/>
      <point x="55" y="88"/>
      <point x="126" y="-5"/>
      <point x="260" y="-5" type="curve" smooth="yes"/>
      <point x="319" y="-5"/>
      <point x="385" y="19"/>
      <point x="444" y="62" type="curve"/>
      <point x="448" y="80" type="line"/>
      <point x="441" y="82" type="line"/>
      <point x="386" y="39"/>
      <point x="321" y="15"/>
      <point x="261" y="15" type="curve" smooth="yes"/>
      <point x="139" y="15"/>
      <point x="75" y="101"/>
      <point x="75" y="253" type="curve" smooth="yes"/>
      <point x="75" y="481"/>
      <point x="174" y="621"/>
      <point x="348" y="621" type="curve" smooth="yes"/>
      <point x="406" y="621"/>
      <point x="456" y="601"/>
      <point x="494" y="565" type="curve"/>
      <point x="501" y="565" type="line"/>
      <point x="510" y="582" type="line"/>
      <point x="469" y="620"/>
      <point x="410" y="641"/>
      <point x="350" y="641" type="curve" smooth="yes"/>
    </contour>
    <contour>
      <point x="278" y="0" type="move" name="bottom"/>
    </contour>
    <contour>
      <point x="335" y="637" type="move" name="top"/>
    </contour>
  </outline>
</glyph>
<glyph name="D" format="1">
  <advance width="609"/>
  <unicode hex="0044"/>
  <outline>
    <contour>
      <point x="160" y="637" type="line"/>
      <point x="170" y="617" type="line"/>
      <point x="196" y="618"/>
      <point x="326" y="622"/>
      <point x="348" y="622" type="curve" smooth="yes"/>
      <point x="485" y="622"/>
      <point x="558" y="538"/>
      <point x="558" y="390" type="curve" smooth="yes"/>
      <point x="558" y="162"/>
      <point x="450" y="15"/>
      <point x="263" y="15" type="curve" smooth="yes"/>
      <point x="238" y="15"/>
      <point x="126" y="18"/>
      <point x="93" y="20" type="curve"/>
      <point x="80" y="0" type="line"/>
      <point x="122" y="-2"/>
      <point x="236" y="-5"/>
      <point x="260" y="-5" type="curve"/>
      <point x="463" y="-5"/>
      <point x="579" y="151"/>
      <point x="579" y="393" type="curve" smooth="yes"/>
      <point x="579" y="552"/>
      <point x="498" y="642"/>
      <point x="350" y="642" type="curve"/>
    </contour>
    <contour>
      <point x="160" y="637" type="line"/>
      <point x="105" y="195" type="line"/>
      <point x="80" y="0" type="line"/>
      <point x="100" y="0" type="line"/>
      <point x="125" y="195" type="line"/>
      <point x="180" y="637" type="line"/>
    </contour>
    <contour>
      <point x="305" y="319" type="move" name="center"/>
    </contour>
    <contour>
      <point x="334" y="637" type="move" name="top"/>
    </contour>
  </outline>
</glyph>
<glyph name="O" format="1">
  <advance width="599"/>
  <unicode hex="004F"/>
  <outline>
    <contour>
      <point x="165" y="642"/>
      <point x="56" y="495"/>
      <point x="56" y="253" type="curve" smooth="yes"/>
      <point x="56" y="89"/>
      <point x="130" y="-5"/>
      <point x="267" y="-5" type="curve" smooth="yes"/>
      <point x="459" y="-5"/>
      <point x="568" y="147"/>
      <point x="568" y="391" type="curve" smooth="yes"/>
      <point x="568" y="551"/>
      <point x="494" y="642"/>
      <point x="355" y="642" type="curve"/>
    </contour>
    <contour>
      <point x="481" y="622"/>
      <point x="547" y="537"/>
      <point x="547" y="387" type="curve" smooth="yes"/>
      <point x="547" y="159"/>
      <point x="445" y="15"/>
      <point x="268" y="15" type="curve" smooth="yes"/>
      <point x="144" y="15"/>
      <point x="77" y="103"/>
      <point x="77" y="256" type="curve" smooth="yes"/>
      <point x="77" y="483"/>
      <point x="179" y="622"/>
      <point x="354" y="622" type="curve" smooth="yes"/>
    </contour>
    <contour>
      <point x="350" y="637" type="move" name="top"/>
    </contour>
  </outline>
</glyph>
<glyph name="T" format="1">
  <advance width="450"/>
  <unicode hex="0054"/>
  <outline>
    <contour>
      <point x="266" y="627" type="line"/>
      <point x="211" y="195" type="line"/>
      <point x="187" y="0" type="line"/>
      <point x="207" y="0" type="line"/>
      <point x="231" y="195" type="line"/>
      <point x="286" y="627" type="line"/>
    </contour>
    <contour>
      <point x="83" y="637" type="line"/>
      <point x="77" y="621" type="line"/>
      <point x="80" y="617" type="line"/>
      <point x="178" y="617" type="line"/>
      <point x="373" y="617" type="line"/>
      <point x="468" y="617" type="line"/>
      <point x="474" y="633" type="line"/>
      <point x="471" y="637" type="line"/>
    </contour>
    <contour>
      <point x="198" y="0" type="move" name="bottom"/>
    </contour>
    <contour>
      <point x="242" y="319" type="move" name="center"/>
    </contour>
    <contour>
      <point x="276" y="637" type="move" name="top"/>
    </contour>
  </outline>
</glyph>
<glyph name="U" format="1">
  <advance width="583"/>
  <unicode hex="0055"/>
  <outline>
    <contour>
      <point x="531" y="637" type="line"/>
      <point x="480" y="229" type="line" smooth="yes"/>
      <point x="462" y="92"/>
      <point x="386" y="16"/>
      <point x="265" y="16" type="curve" smooth="yes"/>
      <point x="159" y="16"/>
      <point x="101" y="74"/>
      <point x="101" y="180" type="curve" smooth="yes"/>
      <point x="101" y="196"/>
      <point x="103" y="212"/>
      <point x="105" y="229" type="curve" smooth="yes"/>
      <point x="158" y="637" type="line"/>
      <point x="138" y="637" type="line"/>
      <point x="98" y="322" type="line"/>
      <point x="85" y="229" type="line" smooth="yes"/>
      <point x="82" y="211"/>
      <point x="81" y="192"/>
      <point x="81" y="176" type="curve" smooth="yes"/>
      <point x="81" y="60"/>
      <point x="148" y="-4"/>
      <point x="266" y="-4" type="curve" smooth="yes"/>
      <point x="400" y="-4"/>
      <point x="485" y="82"/>
      <point x="500" y="229" type="curve"/>
      <point x="510" y="312" type="line"/>
      <point x="551" y="637" type="line"/>
    </contour>
    <contour>
      <point x="497" y="10" type="move" name="ogonek"/>
    </contour>
    <contour>
      <point x="342" y="637" type="move" name="top"/>
    </contour>
  </outline>
</glyph>
<glyph name="backslash" format="1">
  <advance width="360"/>
  <unicode hex="005C"/>
  <outline>
    <contour>
      <point x="84" y="670" type="line"/>
      <point x="288" y="-110" type="line"/>
      <point x="304" y="-110" type="line"/>
      <point x="307" y="-106" type="line"/>
      <point x="103" y="675" type="line"/>
      <point x="87" y="675" type="line"/>
    </contour>
  </outline>
</glyph>
<glyph name="grave" format="1">
  <advance width="390"/>
  <unicode hex="0060"/>
  <outline>
    <contour>
      <point x="169" y="668" type="line"/>
      <point x="159" y="658" type="line"/>
      <point x="160" y="653" type="line"/>
      <point x="208" y="605"/>
      <point x="254" y="562"/>
      <point x="304" y="518" type="curve"/>
      <point x="309" y="519" type="line"/>
      <point x="320" y="532" type="line"/>
      <point x="274" y="571"/>
      <point x="228" y="614"/>
      <point x="174" y="669" type="curve"/>
    </contour>
    <contour>
      <point x="232" y="452" type="move" name="_top"/>
    </contour>
  </outline>
</glyph>
<glyph name="a" format="1">
  <advance width="422"/>
  <unicode hex="0061"/>
  <outline>
    <contour>
      <point x="335" y="448" type="line"/>
      <point x="327" y="362" type="line"/>
      <point x="279" y="-4" type="line"/>
      <point x="304" y="0" type="line"/>
      <point x="313" y="106" type="line"/>
      <point x="359" y="456" type="line"/>
      <point x="354" y="459" type="line"/>
    </contour>
    <contour>
      <point x="181" y="167" type="move"/>
    </contour>
    <contour>
      <point x="127" y="447"/>
      <point x="46" y="305"/>
      <point x="46" y="137" type="curve" smooth="yes"/>
      <point x="46" y="58"/>
      <point x="63" y="22"/>
      <point x="98" y="-4" type="curve"/>
      <point x="109" y="-4" type="line"/>
      <point x="180" y="60"/>
      <point x="252" y="159"/>
      <point x="311" y="271" type="curve"/>
      <point x="316" y="271" type="line"/>
      <point x="334" y="355" type="line"/>
      <point x="234" y="146"/>
      <point x="120" y="24"/>
      <point x="106" y="24" type="curve" smooth="yes"/>
      <point x="94" y="24"/>
      <point x="66" y="52"/>
      <point x="66" y="141" type="curve" smooth="yes"/>
      <point x="66" y="293"/>
      <point x="144" y="434"/>
      <point x="275" y="437" type="curve"/>
      <point x="347" y="431" type="line"/>
      <point x="351" y="451" type="line"/>
      <point x="277" y="457" type="line"/>
      <point x="273" y="457" type="line"/>
    </contour>
    <contour>
      <point x="352" y="10" type="move" name="ogonek"/>
    </contour>
    <contour>
      <point x="252" y="452" type="move" name="top"/>
    </contour>
  </outline>
</glyph>
<glyph name="c" format="1">
  <advance width="323"/>
  <unicode hex="0063"/>
  <outline>
    <contour>
      <point x="113" y="456"/>
      <point x="47" y="320"/>
      <point x="47" y="142" type="curve" smooth="yes"/>
      <point x="47" y="23"/>
      <point x="86" y="3"/>
      <point x="133" y="-5" type="curve"/>
      <point x="141" y="-5" type="line"/>
      <point x="193" y="2"/>
      <point x="237" y="28"/>
      <point x="280" y="105" type="curve"/>
      <point x="271" y="118" type="line"/>
      <point x="265" y="118" type="line"/>
      <point x="224" y="38"/>
      <point x="177" y="16"/>
      <point x="140" y="16" type="curve" smooth="yes"/>
      <point x="93" y="16"/>
      <point x="67" y="51"/>
      <point x="67" y="141" type="curve" smooth="yes"/>
      <point x="67" y="322"/>
      <point x="134" y="435"/>
      <point x="248" y="436" type="curve"/>
      <point x="264" y="436"/>
      <point x="288" y="428"/>
      <point x="312" y="413" type="curve"/>
      <point x="317" y="416" type="line"/>
      <point x="323" y="430" type="line"/>
      <point x="318" y="437" type="line"/>
      <point x="262" y="456" type="line"/>
    </contour>
    <contour>
      <point x="158" y="0" type="move" name="bottom"/>
    </contour>
    <contour>
      <point x="221" y="452" type="move" name="top"/>
    </contour>
  </outline>
</glyph>
<glyph name="o" format="1">
  <advance width="396"/>
  <unicode hex="006F"/>
  <outline>
    <contour>
      <point x="124" y="455"/>
      <point x="48" y="316"/>
      <point x="48" y="134" type="curve" smooth="yes"/>
      <point x="48" y="41"/>
      <point x="78" y="-2"/>
      <point x="144" y="-6" type="curve"/>
      <point x="149" y="-6" type="line"/>
      <point x="273" y="2"/>
      <point x="348" y="138"/>
      <point x="348" y="320" type="curve" smooth="yes"/>
      <point x="348" y="410"/>
      <point x="320" y="453"/>
      <point x="253" y="458" type="curve"/>
      <point x="248" y="458" type="line"/>
    </contour>
    <contour>
      <point x="303" y="437"/>
      <point x="327" y="399"/>
      <point x="327" y="317" type="curve" smooth="yes"/>
      <point x="327" y="145"/>
      <point x="254" y="15"/>
      <point x="148" y="15" type="curve" smooth="yes"/>
      <point x="93" y="15"/>
      <point x="68" y="54"/>
      <point x="68" y="137" type="curve" smooth="yes"/>
      <point x="68" y="308"/>
      <point x="141" y="437"/>
      <point x="248" y="437" type="curve" smooth="yes"/>
    </contour>
    <contour>
      <point x="231" y="452" type="move" name="top"/>
    </contour>
  </outline>
</glyph>
<glyph name="r" format="1">
  <advance width="307"/>
  <unicode hex="0072"/>
  <outline>
    <contour>
      <point x="255" y="443"/>
      <point x="182" y="347"/>
      <point x="109" y="181" type="curve"/>
      <point x="96" y="181" type="line"/>
      <point x="86" y="82" type="line"/>
      <point x="175" y="303"/>
      <point x="255" y="421"/>
      <point x="309" y="430" type="curve"/>
      <point x="320" y="428" type="line"/>
      <point x="323" y="430" type="line"/>
      <point x="326" y="450" type="line"/>
      <point x="310" y="452" type="line"/>
    </contour>
    <contour>
      <point x="116" y="452" type="line"/>
      <point x="108" y="362" type="line"/>
      <point x="61" y="-4" type="line"/>
      <point x="85" y="0" type="line"/>
      <point x="95" y="106" type="line"/>
      <point x="139" y="456" type="line"/>
    </contour>
    <contour>
      <point x="74" y="0" type="move" name="bottom"/>
    </contour>
    <contour>
      <point x="216" y="452" type="move" name="top"/>
    </contour>
  </outline>
</glyph>
<glyph name="s" format="1">
  <advance width="306"/>
  <unicode hex="0073"/>
  <outline>
    <contour>
      <point x="126" y="456"/>
      <point x="66" y="404"/>
      <point x="66" y="336" type="curve" smooth="yes"/>
      <point x="66" y="231"/>
      <point x="224" y="217"/>
      <point x="224" y="117" type="curve" smooth="yes"/>
      <point x="224" y="63"/>
      <point x="176" y="15"/>
      <point x="108" y="15" type="curve" smooth="yes"/>
      <point x="69" y="15"/>
      <point x="42" y="31"/>
      <point x="20" y="50" type="curve"/>
      <point x="13" y="46" type="line"/>
      <point x="10" y="28" type="line"/>
      <point x="32" y="12"/>
      <point x="59" y="-1"/>
      <point x="96" y="-6" type="curve"/>
      <point x="186" y="-5"/>
      <point x="245" y="52"/>
      <point x="245" y="120" type="curve" smooth="yes"/>
      <point x="245" y="228"/>
      <point x="86" y="249"/>
      <point x="86" y="338" type="curve" smooth="yes"/>
      <point x="86" y="385"/>
      <point x="132" y="435"/>
      <point x="197" y="435" type="curve" smooth="yes"/>
      <point x="219" y="435"/>
      <point x="242" y="429"/>
      <point x="266" y="415" type="curve"/>
      <point x="272" y="416" type="line"/>
      <point x="279" y="435" type="line"/>
      <point x="260" y="445"/>
      <point x="236" y="452"/>
      <point x="207" y="455" type="curve"/>
    </contour>
    <contour>
      <point x="129" y="0" type="move" name="bottom"/>
    </contour>
    <contour>
      <point x="188" y="452" type="move" name="top"/>
    </contour>
  </outline>
</glyph>
<glyph name="t" format="1">
  <advance width="316"/>
  <unicode hex="0074"/>
  <outline>
    <contour>
      <point x="165" y="580" type="line"/>
      <point x="133" y="362" type="line"/>
      <point x="86" y="86" type="line"/>
      <point x="84" y="64" type="line"/>
      <point x="84" y="25"/>
      <point x="104" y="-2"/>
      <point x="135" y="-10" type="curve"/>
      <point x="145" y="-10" type="line"/>
      <point x="187" y="3"/>
      <point x="220" y="37"/>
      <point x="263" y="107" type="curve"/>
      <point x="254" y="120" type="line"/>
      <point x="247" y="120" type="line"/>
      <point x="208" y="49"/>
      <point x="169" y="16"/>
      <point x="144" y="16" type="curve" smooth="yes"/>
      <point x="121" y="16"/>
      <point x="104" y="35"/>
      <point x="104" y="67" type="curve"/>
      <point x="106" y="87" type="line"/>
      <point x="190" y="587" type="line"/>
      <point x="187" y="590" type="line"/>
    </contour>
    <contour>
      <point x="71" y="449" type="line"/>
      <point x="68" y="433" type="line"/>
      <point x="72" y="429" type="line"/>
      <point x="311" y="429" type="line"/>
      <point x="314" y="445" type="line"/>
      <point x="311" y="449" type="line"/>
    </contour>
    <contour>
      <point x="159" y="0" type="move" name="bottom"/>
    </contour>
    <contour>
      <point x="156" y="226" type="move" name="center"/>
    </contour>
  </outline>
</glyph>
<glyph name="v" format="1">
  <advance width="382"/>
  <unicode hex="0076"/>
  <outline>
    <contour>
      <point x="318" y="449" type="line"/>
      <point x="317" y="444" type="line"/>
      <point x="334" y="421"/>
      <point x="345" y="399"/>
      <point x="345" y="374" type="curve" smooth="yes"/>
      <point x="345" y="344"/>
      <point x="332" y="309"/>
      <point x="307" y="268" type="curve" smooth="yes"/>
      <point x="158" y="30" type="line"/>
      <point x="155" y="30" type="line"/>
      <point x="119" y="382" type="line"/>
      <point x="113" y="456" type="line"/>
      <point x="90" y="450" type="line"/>
      <point x="139" y="0" type="line"/>
      <point x="160" y="0" type="line"/>
      <point x="324" y="258" type="line" smooth="yes"/>
      <point x="351" y="301"/>
      <point x="365" y="339"/>
      <point x="365" y="373" type="curve" smooth="yes"/>
      <point x="365" y="402"/>
      <point x="355" y="428"/>
      <point x="336" y="455" type="curve"/>
    </contour>
  </outline>
</glyph>
<glyph name="y" format="1">
  <advance width="378"/>
  <unicode hex="0079"/>
  <outline>
    <contour>
      <point x="315" y="449" type="line"/>
      <point x="314" y="444" type="line"/>
      <point x="331" y="421"/>
      <point x="342" y="399"/>
      <point x="342" y="374" type="curve" smooth="yes"/>
      <point x="342" y="344"/>
      <point x="331" y="310"/>
      <point x="306" y="268" type="curve" smooth="yes"/>
      <point x="161" y="24" type="line" smooth="yes"/>
      <point x="79" y="-114"/>
      <point x="10" y="-174"/>
      <point x="-54" y="-174" type="curve" smooth="yes"/>
      <point x="-73" y="-174"/>
      <point x="-94" y="-169"/>
      <point x="-120" y="-157" type="curve"/>
      <point x="-125" y="-159" type="line"/>
      <point x="-124" y="-179" type="line"/>
      <point x="-101" y="-189"/>
      <point x="-78" y="-194"/>
      <point x="-56" y="-194" type="curve" smooth="yes"/>
      <point x="18" y="-194"/>
      <point x="91" y="-136"/>
      <point x="180" y="15" type="curve" smooth="yes"/>
      <point x="323" y="258" type="line" smooth="yes"/>
      <point x="349" y="302"/>
      <point x="362" y="339"/>
      <point x="362" y="373" type="curve" smooth="yes"/>
      <point x="362" y="402"/>
      <point x="352" y="428"/>
      <point x="333" y="455" type="curve"/>
    </contour>
    <contour>
      <point x="74" y="450" type="line"/>
      <point x="156" y="0" type="line"/>
      <point x="180" y="42" type="line"/>
      <point x="168" y="42" type="line"/>
      <point x="109" y="382" type="line"/>
      <point x="97" y="456" type="line"/>
    </contour>
    <contour>
      <point x="217" y="452" type="move" name="top"/>
    </contour>
  </outline>
</glyph>
<glyph name="bar" format="1">
  <advance width="321"/>
  <unicode hex="007C"/>
  <outline>
    <contour>
      <point x="220" y="789" type="line"/>
      <point x="158" y="285" type="line"/>
      <point x="91" y="-261" type="line"/>
      <point x="93" y="-265" type="line"/>
      <point x="110" y="-265" type="line"/>
      <point x="178" y="285" type="line"/>
      <point x="240" y="789" type="line"/>
      <point x="238" y="791" type="line"/>
    </contour>
  </outline>
</glyph>
<glyph name="macron" format="1">
  <advance width="390"/>
  <unicode hex="00AF"/>
  <outline>
    <contour>
      <point x="97" y="607" type="line"/>
      <point x="95" y="590" type="line"/>
      <point x="98" y="587" type="line"/>
      <point x="385" y="587" type="line"/>
      <point x="387" y="604" type="line"/>
      <point x="384" y="607" type="line"/>
    </contour>
    <contour>
      <point x="222" y="452" type="move" name="_top"/>
    </contour>
  </outline>
</glyph>
<glyph name="Thorn" format="1">
  <advance width="467"/>
  <unicode hex="00DE"/>
  <outline>
    <contour>
      <point x="160" y="637" type="line"/>
      <point x="105" y="195" type="line"/>
      <point x="80" y="0" type="line"/>
      <point x="100" y="0" type="line"/>
      <point x="125" y="195" type="line"/>
      <point x="180" y="637" type="line"/>
    </contour>
    <contour>
      <point x="145" y="514" type="line"/>
      <point x="150" y="495" type="line"/>
      <point x="283" y="496" type="line"/>
      <point x="365" y="492"/>
      <point x="409" y="444"/>
      <point x="409" y="362" type="curve" smooth="yes"/>
      <point x="409" y="242"/>
      <point x="343" y="157"/>
      <point x="231" y="146" type="curve"/>
      <point x="109" y="146" type="line"/>
      <point x="106" y="126" type="line"/>
      <point x="199" y="126" type="line"/>
      <point x="347" y="126"/>
      <point x="429" y="216"/>
      <point x="429" y="366" type="curve" smooth="yes"/>
      <point x="429" y="461"/>
      <point x="376" y="516"/>
      <point x="278" y="516" type="curve"/>
    </contour>
  </outline>
</glyph>
<glyph name="germandbls" format="1">
  <advance width="516"/>
  <unicode hex="00DF"/>
  <outline>
    <contour>
      <point x="231" y="704"/>
      <point x="172" y="649"/>
      <point x="160" y="554" type="curve" smooth="yes"/>
      <point x="114" y="190" type="line"/>
      <point x="73" y="-134" type="line"/>
      <point x="98" y="-130" type="line"/>
      <point x="107" y="-24" type="line"/>
      <point x="134" y="192" type="line"/>
      <point x="180" y="554" type="line" smooth="yes"/>
      <point x="190" y="630"/>
      <point x="236" y="684"/>
      <point x="324" y="684" type="curve" smooth="yes"/>
      <point x="388" y="684"/>
      <point x="437" y="658"/>
      <point x="437" y="594" type="curve" smooth="yes"/>
      <point x="437" y="480"/>
      <point x="291" y="468"/>
      <point x="291" y="353" type="curve" smooth="yes"/>
      <point x="291" y="236"/>
      <point x="441" y="218"/>
      <point x="441" y="117" type="curve" smooth="yes"/>
      <point x="441" y="61"/>
      <point x="394" y="15"/>
      <point x="327" y="15" type="curve" smooth="yes"/>
      <point x="288" y="15"/>
      <point x="260" y="31"/>
      <point x="238" y="50" type="curve"/>
      <point x="231" y="46" type="line"/>
      <point x="229" y="28" type="line"/>
      <point x="251" y="12"/>
      <point x="278" y="-1"/>
      <point x="315" y="-6" type="curve"/>
      <point x="401" y="-5"/>
      <point x="462" y="48"/>
      <point x="462" y="118" type="curve" smooth="yes"/>
      <point x="462" y="230"/>
      <point x="311" y="253"/>
      <point x="311" y="355" type="curve" smooth="yes"/>
      <point x="311" y="455"/>
      <point x="457" y="472"/>
      <point x="457" y="596" type="curve" smooth="yes"/>
      <point x="457" y="672"/>
      <point x="400" y="704"/>
      <point x="325" y="704" type="curve" smooth="yes"/>
    </contour>
    <contour>
      <point x="75" y="449" type="line"/>
      <point x="71" y="433" type="line"/>
      <point x="75" y="429" type="line"/>
      <point x="158" y="429" type="line"/>
      <point x="162" y="445" type="line"/>
      <point x="159" y="449" type="line"/>
    </contour>
  </outline>
</glyph>
<glyph name="ae" format="1">
  <advance width="572"/>
  <unicode hex="00E6"/>
  <outline>
    <contour>
      <point x="284" y="457" type="line"/>
      <point x="280" y="457" type="line"/>
      <point x="134" y="447"/>
      <point x="53" y="305"/>
      <point x="53" y="137" type="curve" smooth="yes"/>
      <point x="53" y="58"/>
      <point x="70" y="22"/>
      <point x="105" y="-4" type="curve"/>
      <point x="116" y="-4" type="line"/>
      <point x="171" y="52"/>
      <point x="228" y="136"/>
      <point x="277" y="232" type="curve"/>
      <point x="272" y="204"/>
      <point x="270" y="174"/>
      <point x="270" y="143" type="curve" smooth="yes"/>
      <point x="270" y="50"/>
      <point x="295" y="3"/>
      <point x="362" y="-5" type="curve"/>
      <point x="371" y="-5" type="line"/>
      <point x="433" y="3"/>
      <point x="477" y="39"/>
      <point x="516" y="105" type="curve"/>
      <point x="507" y="118" type="line"/>
      <point x="500" y="118" type="line"/>
      <point x="464" y="53"/>
      <point x="419" y="16"/>
      <point x="369" y="16" type="curve" smooth="yes"/>
      <point x="316" y="16"/>
      <point x="290" y="56"/>
      <point x="290" y="148" type="curve" smooth="yes"/>
      <point x="290" y="150"/>
      <point x="290" y="162"/>
      <point x="291" y="176" type="curve"/>
      <point x="460" y="239"/>
      <point x="545" y="312.996"/>
      <point x="545" y="388" type="curve" smooth="yes"/>
      <point x="545" y="428"/>
      <point x="521" y="453"/>
      <point x="470" y="457" type="curve"/>
      <point x="465" y="457" type="line" smooth="yes"/>
      <point x="437" y="456"/>
      <point x="410" y="447"/>
      <point x="386" y="431" type="curve"/>
    </contour>
    <contour>
      <point x="366" y="414" type="line"/>
      <point x="344" y="394"/>
      <point x="325" y="367"/>
      <point x="309" y="335" type="curve"/>
      <point x="228" y="148"/>
      <point x="126" y="24"/>
      <point x="113" y="24" type="curve" smooth="yes"/>
      <point x="101" y="24"/>
      <point x="73" y="52"/>
      <point x="73" y="141" type="curve" smooth="yes"/>
      <point x="73" y="293"/>
      <point x="151" y="434"/>
      <point x="282" y="437" type="curve"/>
    </contour>
    <contour>
      <point x="506" y="436"/>
      <point x="524" y="414"/>
      <point x="524" y="385" type="curve" smooth="yes"/>
      <point x="524" y="321"/>
      <point x="442" y="253"/>
      <point x="293" y="198" type="curve"/>
      <point x="307" y="337"/>
      <point x="380" y="436"/>
      <point x="467" y="436" type="curve" smooth="yes"/>
    </contour>
    <contour>
      <point x="604" y="0" type="move" name="bottom"/>
    </contour>
    <contour>
      <point x="393" y="10" type="move" name="ogonek"/>
    </contour>
    <contour>
      <point x="349" y="452" type="move" name="top"/>
    </contour>
  </outline>
</glyph>
<glyph name="aogonek" format="1">
  <advance width="430"/>
  <unicode hex="0105"/>
  <outline>
    <contour>
      <point x="289" y="5" type="line"/>
      <point x="196" y="-84"/>
      <point x="176" y="-111"/>
      <point x="176" y="-141" type="curve" smooth="yes"/>
      <point x="176" y="-177"/>
      <point x="204" y="-197"/>
      <point x="233" y="-197" type="curve" smooth="yes"/>
      <point x="264" y="-197"/>
      <point x="290" y="-175"/>
      <point x="311" y="-140" type="curve"/>
      <point x="301" y="-124" type="line"/>
      <point x="299" y="-124" type="line"/>
      <point x="280" y="-157"/>
      <point x="259" y="-177"/>
      <point x="234" y="-177" type="curve" smooth="yes"/>
      <point x="215" y="-177"/>
      <point x="196" y="-166"/>
      <point x="196" y="-139" type="curve" smooth="yes"/>
      <point x="196" y="-113"/>
      <point x="214" y="-88"/>
      <point x="309" y="1" type="curve"/>
    </contour>
    <component base="a"/>
  </outline>
</glyph>
<glyph name="hbar" format="1">
  <advance width="515"/>
  <unicode hex="0127"/>
  <outline>
    <contour>
      <point x="99" y="581" type="line"/>
      <point x="97" y="564" type="line"/>
      <point x="100" y="561" type="line"/>
      <point x="330" y="561" type="line"/>
      <point x="332" y="578" type="line"/>
      <point x="329" y="581" type="line"/>
    </contour>
    <component base="h" xOffset="41"/>
  </outline>
</glyph>
<glyph name="Tcedilla" format="1">
  <advance width="450"/>
  <unicode hex="0162"/>
  <outline>
    <contour>
      <point x="187" y="0" type="line"/>
      <point x="167" y="-64" type="line"/>
      <point x="208" y="-92" type="line" smooth="yes"/>
      <point x="222" y="-102"/>
      <point x="230" y="-109"/>
      <point x="230" y="-125" type="curve" smooth="yes"/>
      <point x="230" y="-146"/>
      <point x="215" y="-158"/>
      <point x="193" y="-158" type="curve" smooth="yes"/>
      <point x="169" y="-158"/>
      <point x="158" y="-145"/>
      <point x="147" y="-127" type="curve"/>
      <point x="143" y="-127" type="line"/>
      <point x="137" y="-145" type="line"/>
      <point x="147" y="-160"/>
      <point x="164" y="-178"/>
      <point x="193" y="-178" type="curve" smooth="yes"/>
      <point x="223" y="-178"/>
      <point x="250" y="-158"/>
      <point x="250" y="-125" type="curve" smooth="yes"/>
      <point x="250" y="-103"/>
      <point x="239" y="-89"/>
      <point x="219" y="-75" type="curve" smooth="yes"/>
      <point x="190" y="-55" type="line"/>
      <point x="207" y="0" type="line"/>
    </contour>
    <component base="T"/>
  </outline>
</glyph>
<glyph name="tbar" format="1">
  <advance width="323"/>
  <unicode hex="0167"/>
  <outline>
    <contour>
      <point x="47" y="284" type="line"/>
      <point x="43" y="267" type="line"/>
      <point x="46" y="264" type="line"/>
      <point x="261" y="264" type="line"/>
      <point x="265" y="281" type="line"/>
      <point x="262" y="284" type="line"/>
    </contour>
    <component base="t" xOffset="5"/>
  </outline>
</glyph>
<glyph name="uogonek" format="1">
  <advance width="454"/>
  <unicode hex="0173"/>
  <outline>
    <contour>
      <point x="317" y="5" type="line"/>
      <point x="224" y="-84"/>
      <point x="204" y="-111"/>
      <point x="204" y="-141" type="curve" smooth="yes"/>
      <point x="204" y="-177"/>
      <point x="232" y="-197"/>
      <point x="261" y="-197" type="curve" smooth="yes"/>
      <point x="292" y="-197"/>
      <point x="318" y="-175"/>
      <point x="339" y="-140" type="curve"/>
      <point x="329" y="-124" type="line"/>
      <point x="327" y="-124" type="line"/>
      <point x="308" y="-157"/>
      <point x="287" y="-177"/>
      <point x="262" y="-177" type="curve" smooth="yes"/>
      <point x="243" y="-177"/>
      <point x="224" y="-166"/>
      <point x="224" y="-139" type="curve" smooth="yes"/>
      <point x="224" y="-113"/>
      <point x="242" y="-88"/>
      <point x="337" y="1" type="curve"/>
    </contour>
    <component base="u"/>
  </outline>
</glyph>
<glyph name="ohorn" format="1">
  <advance width="409"/>
  <unicode hex="01A1"/>
  <outline>
    <contour>
      <point x="414" y="568"/>
      <point x="410" y="567"/>
      <point x="404" y="563" type="curve"/>
      <point x="402" y="558" type="line"/>
      <point x="423" y="535"/>
      <point x="435" y="510"/>
      <point x="435" y="487" type="curve" smooth="yes"/>
      <point x="435" y="448"/>
      <point x="402" y="422"/>
      <point x="364" y="422" type="curve" smooth="yes"/>
      <point x="322" y="422"/>
      <point x="314" y="454"/>
      <point x="258" y="458" type="curve"/>
      <point x="331" y="407" type="line"/>
      <point x="401" y="390"/>
      <point x="454" y="432"/>
      <point x="454" y="492" type="curve" smooth="yes"/>
      <point x="454" y="535"/>
      <point x="428" y="568"/>
      <point x="416" y="568" type="curve" smooth="yes"/>
    </contour>
    <contour>
      <point x="127" y="456"/>
      <point x="52" y="309"/>
      <point x="52" y="140" type="curve" smooth="yes"/>
      <point x="52" y="47"/>
      <point x="75" y="-1"/>
      <point x="149" y="-6" type="curve"/>
      <point x="154" y="-6" type="line"/>
      <point x="279" y="1"/>
      <point x="354" y="142"/>
      <point x="354" y="314" type="curve" smooth="yes"/>
      <point x="354" y="367"/>
      <point x="347" y="394"/>
      <point x="332" y="418" type="curve"/>
      <point x="258" y="458" type="line"/>
      <point x="253" y="458" type="line"/>
    </contour>
    <contour>
      <point x="311" y="437"/>
      <point x="333" y="399"/>
      <point x="333" y="310" type="curve" smooth="yes"/>
      <point x="333" y="148"/>
      <point x="260" y="15"/>
      <point x="153" y="15" type="curve" smooth="yes"/>
      <point x="95" y="15"/>
      <point x="72" y="54"/>
      <point x="72" y="144" type="curve" smooth="yes"/>
      <point x="72" y="304"/>
      <point x="145" y="437"/>
      <point x="253" y="437" type="curve" smooth="yes"/>
    </contour>
    <contour>
      <point x="246" y="452" type="move" name="top"/>
    </contour>
  </outline>
</glyph>
<glyph name="uhorn" format="1">
  <advance width="456"/>
  <unicode hex="01B0"/>
  <outline>
    <contour>
      <point x="124" y="451" type="line"/>
      <point x="112" y="350" type="line"/>
      <point x="69" y="87" type="line"/>
      <point x="68" y="74" type="line"/>
      <point x="66" y="32"/>
      <point x="88" y="-2"/>
      <point x="119" y="-11" type="curve"/>
      <point x="130" y="-11" type="line"/>
      <point x="200" y="35"/>
      <point x="265" y="132"/>
      <point x="343" y="267" type="curve"/>
      <point x="356" y="267" type="line"/>
      <point x="368" y="353" type="line"/>
      <point x="254" y="137"/>
      <point x="157" y="15"/>
      <point x="123" y="15" type="curve" smooth="yes"/>
      <point x="106" y="15"/>
      <point x="88" y="41"/>
      <point x="89" y="75" type="curve"/>
      <point x="90" y="90" type="line"/>
      <point x="149" y="455" type="line"/>
    </contour>
    <contour>
      <point x="367" y="452" type="line"/>
      <point x="360" y="362" type="line"/>
      <point x="312" y="-4" type="line"/>
      <point x="337" y="0" type="line"/>
      <point x="346" y="106" type="line"/>
      <point x="392" y="456" type="line"/>
    </contour>
    <contour>
      <point x="442" y="601"/>
      <point x="438" y="600"/>
      <point x="432" y="596" type="curve"/>
      <point x="430" y="591" type="line"/>
      <point x="454" y="566"/>
      <point x="463" y="540"/>
      <point x="463" y="521" type="curve" smooth="yes"/>
      <point x="463" y="487"/>
      <point x="438" y="466"/>
      <point x="383" y="455" type="curve" smooth="yes"/>
      <point x="367" y="452" type="line"/>
      <point x="387" y="438" type="line"/>
      <point x="453" y="452"/>
      <point x="483" y="480"/>
      <point x="483" y="526" type="curve" smooth="yes"/>
      <point x="483" y="568"/>
      <point x="457" y="601"/>
      <point x="445" y="601" type="curve" smooth="yes"/>
    </contour>
    <contour>
      <point x="269" y="452" type="move" name="top"/>
    </contour>
  </outline>
</glyph>
<glyph name="firsttonechinese" format="1">
  <advance width="390"/>
  <unicode hex="02C9"/>
  <outline>
    <contour>
      <point x="95" y="607" type="line"/>
      <point x="93" y="590" type="line"/>
      <point x="96" y="587" type="line"/>
      <point x="383" y="587" type="line"/>
      <point x="385" y="604" type="line"/>
      <point x="382" y="607" type="line"/>
    </contour>
  </outline>
</glyph>
<glyph name="dotaccent" format="1">
  <advance width="390"/>
  <unicode hex="02D9"/>
  <outline>
    <contour>
      <point x="229" y="630"/>
      <point x="221" y="622"/>
      <point x="221" y="610" type="curve" smooth="yes"/>
      <point x="221" y="598"/>
      <point x="229" y="590"/>
      <point x="241" y="590" type="curve" smooth="yes"/>
      <point x="253" y="590"/>
      <point x="261" y="598"/>
      <point x="261" y="610" type="curve" smooth="yes"/>
      <point x="261" y="622"/>
      <point x="253" y="630"/>
      <point x="241" y="630" type="curve" smooth="yes"/>
    </contour>
    <contour>
      <point x="222" y="452" type="move" name="_top"/>
    </contour>
  </outline>
</glyph>
<glyph name="ring" format="1">
  <advance width="390"/>
  <unicode hex="02DA"/>
  <outline>
    <contour>
      <point x="197" y="668"/>
      <point x="169" y="638"/>
      <point x="169" y="599" type="curve" smooth="yes"/>
      <point x="169" y="555"/>
      <point x="204" y="529"/>
      <point x="239" y="529" type="curve" smooth="yes"/>
      <point x="274" y="529"/>
      <point x="310" y="554"/>
      <point x="310" y="598" type="curve" smooth="yes"/>
      <point x="310" y="633"/>
      <point x="285" y="668"/>
      <point x="239" y="668" type="curve" smooth="yes"/>
    </contour>
    <contour>
      <point x="273" y="648"/>
      <point x="290" y="625"/>
      <point x="290" y="598" type="curve" smooth="yes"/>
      <point x="290" y="566"/>
      <point x="266" y="549"/>
      <point x="239" y="549" type="curve" smooth="yes"/>
      <point x="212" y="549"/>
      <point x="189" y="567"/>
      <point x="189" y="599" type="curve" smooth="yes"/>
      <point x="189" y="628"/>
      <point x="208" y="648"/>
      <point x="239" y="648" type="curve" smooth="yes"/>
    </contour>
    <contour>
      <point x="222" y="452" type="move" name="_top"/>
    </contour>
  </outline>
</glyph>
<glyph name="tilde" format="1">
  <advance width="390"/>
  <unicode hex="02DC"/>
  <outline>
    <contour>
      <point x="366" y="631" type="line"/>
      <point x="339" y="607"/>
      <point x="326" y="590"/>
      <point x="315" y="590" type="curve"/>
      <point x="290" y="590"/>
      <point x="196" y="624"/>
      <point x="159" y="628" type="curve"/>
      <point x="153" y="626" type="line"/>
      <point x="101" y="579" type="line"/>
      <point x="101" y="575" type="line"/>
      <point x="110" y="564" type="line"/>
      <point x="114" y="564" type="line"/>
      <point x="141" y="588"/>
      <point x="154" y="605"/>
      <point x="165" y="605" type="curve"/>
      <point x="190" y="605"/>
      <point x="284" y="571"/>
      <point x="321" y="567" type="curve"/>
      <point x="327" y="569" type="line"/>
      <point x="379" y="616" type="line"/>
      <point x="379" y="620" type="line"/>
      <point x="370" y="631" type="line"/>
    </contour>
    <contour>
      <point x="222" y="452" type="move" name="_top"/>
    </contour>
  </outline>
</glyph>
<glyph name="hungarumlaut" format="1">
  <advance width="390"/>
  <unicode hex="02DD"/>
  <outline>
    <contour>
      <point x="235" y="517" type="line"/>
      <point x="240" y="516" type="line"/>
      <point x="289" y="560"/>
      <point x="337" y="605"/>
      <point x="384" y="651" type="curve"/>
      <point x="385" y="656" type="line"/>
      <point x="375" y="666" type="line"/>
      <point x="370" y="667" type="line"/>
      <point x="323" y="620"/>
      <point x="275" y="575"/>
      <point x="224" y="530" type="curve"/>
    </contour>
    <contour>
      <point x="105" y="517" type="line"/>
      <point x="110" y="516" type="line"/>
      <point x="159" y="560"/>
      <point x="207" y="605"/>
      <point x="254" y="651" type="curve"/>
      <point x="255" y="656" type="line"/>
      <point x="245" y="666" type="line"/>
      <point x="240" y="667" type="line"/>
      <point x="193" y="620"/>
      <point x="145" y="575"/>
      <point x="94" y="530" type="curve"/>
    </contour>
    <contour>
      <point x="193" y="452" type="move" name="_top"/>
    </contour>
  </outline>
</glyph>
<glyph name="tildecomb" format="1">
  <advance width="390"/>
  <unicode hex="0303"/>
  <outline>
    <contour>
      <point x="366" y="631" type="line"/>
      <point x="339" y="607"/>
      <point x="326" y="590"/>
      <point x="315" y="590" type="curve"/>
      <point x="290" y="590"/>
      <point x="197" y="625"/>
      <point x="160" y="629" type="curve"/>
      <point x="154" y="627" type="line"/>
      <point x="101" y="579" type="line"/>
      <point x="101" y="575" type="line"/>
      <point x="110" y="564" type="line"/>
      <point x="114" y="564" type="line"/>
      <point x="141" y="588"/>
      <point x="154" y="605"/>
      <point x="165" y="605" type="curve"/>
      <point x="190" y="605"/>
      <point x="283" y="570"/>
      <point x="320" y="566" type="curve"/>
      <point x="326" y="568" type="line"/>
      <point x="379" y="616" type="line"/>
      <point x="379" y="620" type="line"/>
      <point x="370" y="631" type="line"/>
    </contour>
    <contour>
      <point x="222" y="452" type="move" name="_top"/>
    </contour>
  </outline>
</glyph>
<glyph name="commaaccentcomb" format="1">
  <advance width="390"/>
  <unicode hex="0326"/>
  <outline>
    <contour>
      <point x="140" y="-74"/>
      <point x="136" y="-78"/>
      <point x="133" y="-82" type="curve"/>
      <point x="133" y="-86" type="line"/>
      <point x="152" y="-95"/>
      <point x="163" y="-107"/>
      <point x="163" y="-120" type="curve"/>
      <point x="163" y="-144"/>
      <point x="144" y="-172"/>
      <point x="109" y="-198" type="curve"/>
      <point x="108" y="-201" type="line"/>
      <point x="118" y="-212" type="line"/>
      <point x="161" y="-179"/>
      <point x="184" y="-146"/>
      <point x="184" y="-119" type="curve"/>
      <point x="184" y="-99"/>
      <point x="170" y="-82"/>
      <point x="146" y="-71" type="curve"/>
    </contour>
    <contour>
      <point x="164" y="0" type="move" name="_bottom"/>
    </contour>
  </outline>
</glyph>
<glyph name="mu" format="1">
  <advance width="458"/>
  <unicode hex="03BC"/>
  <outline>
    <contour>
      <point x="258" y="137"/>
      <point x="161" y="15"/>
      <point x="127" y="15" type="curve" smooth="yes"/>
      <point x="110" y="15"/>
      <point x="88" y="37"/>
      <point x="92" y="75" type="curve"/>
      <point x="75" y="67" type="line"/>
      <point x="73" y="25"/>
      <point x="92" y="-2"/>
      <point x="123" y="-11" type="curve"/>
      <point x="134" y="-11" type="line"/>
      <point x="204" y="35"/>
      <point x="269" y="132"/>
      <point x="347" y="267" type="curve"/>
      <point x="360" y="267" type="line"/>
      <point x="372" y="353" type="line"/>
    </contour>
    <contour>
      <point x="116" y="452" type="line"/>
      <point x="110" y="362" type="line"/>
      <point x="38" y="-194" type="line"/>
      <point x="63" y="-190" type="line"/>
      <point x="72" y="-84" type="line"/>
      <point x="92" y="75" type="line"/>
      <point x="141" y="456" type="line"/>
    </contour>
    <contour>
      <point x="371" y="452" type="line"/>
      <point x="364" y="362" type="line"/>
      <point x="316" y="-4" type="line"/>
      <point x="341" y="0" type="line"/>
      <point x="350" y="106" type="line"/>
      <point x="396" y="456" type="line"/>
    </contour>
  </outline>
</glyph>
<glyph name="pi" format="1">
  <advance width="566"/>
  <unicode hex="03C0"/>
  <outline>
    <contour>
      <point x="444" y="491" type="line"/>
      <point x="126" y="491" type="line"/>
      <point x="111" y="488" type="line"/>
      <point x="41" y="433" type="line"/>
      <point x="40" y="428" type="line"/>
      <point x="46" y="419" type="line"/>
      <point x="52" y="419" type="line"/>
      <point x="91" y="451"/>
      <point x="117" y="471"/>
      <point x="129" y="471" type="curve" smooth="yes"/>
      <point x="415" y="471" type="line"/>
      <point x="366" y="79" type="line" smooth="yes"/>
      <point x="357" y="20"/>
      <point x="373" y="-3"/>
      <point x="408" y="-3" type="curve" smooth="yes"/>
      <point x="424" y="-3"/>
      <point x="440" y="2"/>
      <point x="454" y="11" type="curve"/>
      <point x="460" y="29" type="line"/>
      <point x="455" y="32" type="line"/>
      <point x="442" y="22"/>
      <point x="425" y="17"/>
      <point x="412" y="17" type="curve" smooth="yes"/>
      <point x="388" y="17"/>
      <point x="379" y="36"/>
      <point x="385" y="79" type="curve" smooth="yes"/>
      <point x="435" y="471" type="line"/>
      <point x="555" y="471" type="line"/>
      <point x="561" y="487" type="line"/>
      <point x="558" y="491" type="line"/>
    </contour>
    <contour>
      <point x="189" y="482" type="line"/>
      <point x="153" y="196" type="line"/>
      <point x="116" y="-98" type="line"/>
      <point x="136" y="-98" type="line"/>
      <point x="173" y="196" type="line"/>
      <point x="209" y="482" type="line"/>
    </contour>
  </outline>
</glyph>
<glyph name="odotbelow" format="1">
  <advance width="396"/>
  <unicode hex="1ECD"/>
  <outline>
    <component base="o"/>
    <component base="dotbelowcomb" xOffset="-4"/>
    <contour>
      <point x="236" y="452" type="move" name="top"/>
    </contour>
  </outline>
</glyph>
<glyph name="quoteright" format="1">
  <advance width="124"/>
  <unicode hex="2019"/>
  <outline>
    <contour>
      <point x="78" y="627"/>
      <point x="74" y="622"/>
      <point x="73" y="618" type="curve"/>
      <point x="73" y="614" type="line"/>
      <point x="99" y="608"/>
      <point x="111" y="594"/>
      <point x="111" y="575" type="curve" smooth="yes"/>
      <point x="111" y="552"/>
      <point x="97" y="524"/>
      <point x="67" y="492" type="curve"/>
      <point x="67" y="488" type="line"/>
      <point x="80" y="477" type="line"/>
      <point x="116" y="515"/>
      <point x="133" y="550"/>
      <point x="133" y="579" type="curve" smooth="yes"/>
      <point x="133" y="607"/>
      <point x="117" y="626"/>
      <point x="83" y="634" type="curve"/>
    </contour>
  </outline>
</glyph>
<glyph name="guilsinglright" format="1">
  <advance width="210"/>
  <unicode hex="203A"/>
  <outline>
    <contour>
      <point x="41" y="387" type="line"/>
      <point x="40" y="381" type="line"/>
      <point x="166" y="223" type="line"/>
      <point x="2" y="65" type="line"/>
      <point x="1" y="59" type="line"/>
      <point x="12" y="50" type="line"/>
      <point x="187" y="215" type="line"/>
      <point x="189" y="226" type="line"/>
      <point x="54" y="396" type="line"/>
    </contour>
  </outline>
</glyph>
<glyph name="lozenge" format="1">
  <advance width="480"/>
  <unicode hex="25CA"/>
  <outline>
    <contour>
      <point x="275" y="640" type="line"/>
      <point x="71" y="289" type="line"/>
      <point x="69" y="275" type="line"/>
      <point x="189" y="-74" type="line"/>
      <point x="191" y="-76" type="line"/>
      <point x="206" y="-76" type="line"/>
      <point x="410" y="275" type="line"/>
      <point x="412" y="289" type="line"/>
      <point x="292" y="638" type="line"/>
      <point x="290" y="640" type="line"/>
    </contour>
    <contour>
      <point x="392" y="282" type="line"/>
      <point x="204" y="-43" type="line"/>
      <point x="200" y="-43" type="line"/>
      <point x="89" y="282" type="line"/>
      <point x="277" y="606" type="line"/>
      <point x="281" y="606" type="line"/>
    </contour>
  </outline>
</glyph>
<glyph name="C.ss01" format="1">
  <advance width="436"/>
  <outline>
    <contour>
      <point x="139" y="489"/>
      <point x="54" y="379"/>
      <point x="54" y="197" type="curve" smooth="yes"/>
      <point x="54" y="72"/>
      <point x="111" y="1"/>
      <point x="221" y="1" type="curve" smooth="yes"/>
      <point x="268" y="1"/>
      <point x="321" y="19"/>
      <point x="368" y="50" type="curve"/>
      <point x="372" y="68" type="line"/>
      <point x="366" y="70" type="line"/>
      <point x="323" y="38"/>
      <point x="270" y="20"/>
      <point x="223" y="20" type="curve" smooth="yes"/>
      <point x="126" y="20"/>
      <point x="74" y="84"/>
      <point x="74" y="199" type="curve" smooth="yes"/>
      <point x="74" y="368"/>
      <point x="152" y="471"/>
      <point x="289" y="471" type="curve" smooth="yes"/>
      <point x="334" y="471"/>
      <point x="375" y="455"/>
      <point x="404" y="428" type="curve"/>
      <point x="410" y="428" type="line"/>
      <point x="419" y="446" type="line"/>
      <point x="385" y="473"/>
      <point x="339" y="489"/>
      <point x="292" y="489" type="curve" smooth="yes"/>
    </contour>
    <contour>
      <point x="-122" y="20" type="line"/>
      <point x="-124" y="0" type="line"/>
      <point x="504" y="0" type="line"/>
      <point x="506" y="20" type="line"/>
    </contour>
    <contour>
      <point x="-62" y="491" type="line"/>
      <point x="-64" y="471" type="line"/>
      <point x="564" y="471" type="line"/>
      <point x="566" y="491" type="line"/>
    </contour>
    <contour>
      <point x="215" y="5" type="move" name="bottom"/>
    </contour>
    <contour>
      <point x="273" y="486" type="move" name="top"/>
    </contour>
  </outline>
</glyph>
<glyph name="X.ss01" format="1">
  <advance width="471"/>
  <outline>
    <contour>
      <point x="411" y="488" type="line"/>
      <point x="389" y="456" type="line"/>
      <point x="236" y="269" type="line"/>
      <point x="126" y="460" type="line"/>
      <point x="113" y="488" type="line"/>
      <point x="85" y="488" type="line"/>
      <point x="220" y="253" type="line"/>
      <point x="15" y="2" type="line"/>
      <point x="40" y="2" type="line"/>
      <point x="60" y="31" type="line"/>
      <point x="231" y="238" type="line"/>
      <point x="348" y="32" type="line"/>
      <point x="364" y="2" type="line"/>
      <point x="390" y="2" type="line"/>
      <point x="245" y="253" type="line"/>
      <point x="438" y="488" type="line"/>
    </contour>
    <contour>
      <point x="-122" y="20" type="line"/>
      <point x="-124" y="0" type="line"/>
      <point x="539" y="0" type="line"/>
      <point x="541" y="20" type="line"/>
    </contour>
    <contour>
      <point x="-62" y="491" type="line"/>
      <point x="-64" y="471" type="line"/>
      <point x="599" y="471" type="line"/>
      <point x="601" y="491" type="line"/>
    </contour>
  </outline>
</glyph>
<glyph name="acute.cap" format="1">
  <advance width="390"/>
  <outline>
    <contour>
      <point x="256" y="612"/>
      <point x="200" y="583"/>
      <point x="146" y="557" type="curve"/>
      <point x="153" y="542" type="line"/>
      <point x="158" y="539" type="line"/>
      <point x="217" y="569"/>
      <point x="273" y="598"/>
      <point x="332" y="632" type="curve"/>
      <point x="334" y="637" type="line"/>
      <point x="327" y="649" type="line"/>
      <point x="322" y="651" type="line"/>
    </contour>
    <contour>
      <point x="212" y="452" type="move" name="_top"/>
    </contour>
  </outline>
</glyph>
<glyph name="ampersand.sc" format="1">
  <advance width="762"/>
  <outline>
    <contour>
      <point x="622" y="711" type="line"/>
      <point x="529" y="501"/>
      <point x="309" y="309"/>
      <point x="77" y="231" type="curve"/>
      <point x="84" y="212" type="line"/>
      <point x="317" y="289"/>
      <point x="536" y="479"/>
      <point x="634" y="691" type="curve"/>
      <point x="632" y="699"/>
      <point x="630" y="704"/>
      <point x="626" y="711" type="curve"/>
    </contour>
    <contour>
      <point x="141" y="495"/>
      <point x="62" y="400"/>
      <point x="62" y="261" type="curve" smooth="yes"/>
      <point x="62" y="99"/>
      <point x="162" y="-10"/>
      <point x="312" y="-10" type="curve" smooth="yes"/>
      <point x="492" y="-10"/>
      <point x="606" y="112"/>
      <point x="597" y="295" type="curve"/>
      <point x="591" y="299" type="line" smooth="yes"/>
      <point x="577" y="295" type="line"/>
      <point x="586" y="125"/>
      <point x="480" y="11"/>
      <point x="312" y="11" type="curve" smooth="yes"/>
      <point x="174" y="11"/>
      <point x="82" y="111"/>
      <point x="82" y="261" type="curve" smooth="yes"/>
      <point x="82" y="390"/>
      <point x="150" y="475"/>
      <point x="235" y="475" type="curve" smooth="yes"/>
      <point x="280" y="475"/>
      <point x="311" y="452"/>
      <point x="313" y="416" type="curve" smooth="yes"/>
      <point x="315" y="392"/>
      <point x="309" y="351"/>
      <point x="263" y="318" type="curve"/>
      <point x="295" y="330" type="line"/>
      <point x="325" y="355"/>
      <point x="334" y="392"/>
      <point x="334" y="414" type="curve" smooth="yes"/>
      <point x="334" y="462"/>
      <point x="294" y="495"/>
      <point x="234" y="495" type="curve" smooth="yes"/>
    </contour>
    <contour>
      <point x="398" y="226" type="line"/>
      <point x="403" y="228" type="line"/>
      <point x="422" y="281"/>
      <point x="452" y="305"/>
      <point x="497" y="305" type="curve"/>
      <point x="544" y="305"/>
      <point x="660" y="268"/>
      <point x="719" y="268" type="curve"/>
      <point x="776" y="272"/>
      <point x="804" y="299"/>
      <point x="829" y="357" type="curve"/>
      <point x="816" y="367" type="line"/>
      <point x="811" y="365" type="line"/>
      <point x="792" y="312"/>
      <point x="762" y="288"/>
      <point x="717" y="288" type="curve" smooth="yes"/>
      <point x="660" y="288"/>
      <point x="545" y="325"/>
      <point x="495" y="325" type="curve"/>
      <point x="438" y="321"/>
      <point x="410" y="294"/>
      <point x="385" y="236" type="curve"/>
    </contour>
  </outline>
</glyph>
<glyph name="breveacute" format="1">
  <advance width="390"/>
  <outline>
    <contour>
      <point x="323" y="608" type="line"/>
      <point x="307" y="566"/>
      <point x="276" y="543"/>
      <point x="232" y="543" type="curve" smooth="yes"/>
      <point x="188" y="543"/>
      <point x="163" y="566"/>
      <point x="158" y="608" type="curve"/>
      <point x="153" y="608" type="line"/>
      <point x="139" y="597" type="line"/>
      <point x="147" y="549"/>
      <point x="182" y="523"/>
      <point x="231" y="523" type="curve" smooth="yes"/>
      <point x="281" y="523"/>
      <point x="319" y="549"/>
      <point x="340" y="597" type="curve"/>
      <point x="328" y="608" type="line"/>
    </contour>
    <contour>
      <point x="289" y="711" type="line"/>
      <point x="261" y="680"/>
      <point x="235" y="651"/>
      <point x="206" y="621" type="curve"/>
      <point x="218" y="609" type="line"/>
      <point x="223" y="608" type="line"/>
      <point x="251" y="638"/>
      <point x="278" y="666"/>
      <point x="304" y="696" type="curve"/>
      <point x="305" y="701" type="line"/>
      <point x="294" y="711" type="line"/>
    </contour>
    <contour>
      <point x="223" y="452" type="move" name="_top"/>
    </contour>
  </outline>
</glyph>
<glyph name="brevegrave" format="1">
  <advance width="390"/>
  <outline>
    <contour>
      <point x="323" y="609" type="line"/>
      <point x="307" y="567"/>
      <point x="276" y="544"/>
      <point x="232" y="544" type="curve" smooth="yes"/>
      <point x="188" y="544"/>
      <point x="163" y="567"/>
      <point x="158" y="609" type="curve"/>
      <point x="153" y="609" type="line"/>
      <point x="139" y="598" type="line"/>
      <point x="147" y="550"/>
      <point x="182" y="524"/>
      <point x="231" y="524" type="curve" smooth="yes"/>
      <point x="281" y="524"/>
      <point x="319" y="550"/>
      <point x="340" y="598" type="curve"/>
      <point x="328" y="609" type="line"/>
    </contour>
    <contour>
      <point x="232" y="651"/>
      <point x="206" y="680"/>
      <point x="178" y="711" type="curve"/>
      <point x="173" y="711" type="line"/>
      <point x="162" y="701" type="line"/>
      <point x="163" y="696" type="line"/>
      <point x="189" y="666"/>
      <point x="216" y="638"/>
      <point x="244" y="608" type="curve"/>
      <point x="249" y="609" type="line"/>
      <point x="261" y="621" type="line"/>
    </contour>
    <contour>
      <point x="223" y="452" type="move" name="_top"/>
    </contour>
  </outline>
</glyph>
<glyph name="dieresiscaron" format="1">
  <advance width="390"/>
  <outline>
    <contour>
      <point x="341" y="718" type="line"/>
      <point x="305" y="695"/>
      <point x="271" y="672"/>
      <point x="238" y="648" type="curve"/>
      <point x="210" y="672"/>
      <point x="182" y="695"/>
      <point x="151" y="718" type="curve"/>
      <point x="146" y="718" type="line"/>
      <point x="138" y="704" type="line"/>
      <point x="169" y="680"/>
      <point x="200" y="654"/>
      <point x="230" y="628" type="curve"/>
      <point x="246" y="628" type="line"/>
      <point x="280" y="654"/>
      <point x="314" y="680"/>
      <point x="351" y="704" type="curve"/>
      <point x="346" y="718" type="line"/>
    </contour>
    <contour>
      <point x="153" y="595"/>
      <point x="145" y="587"/>
      <point x="145" y="575" type="curve" smooth="yes"/>
      <point x="145" y="563"/>
      <point x="153" y="555"/>
      <point x="165" y="555" type="curve" smooth="yes"/>
      <point x="177" y="555"/>
      <point x="185" y="563"/>
      <point x="185" y="575" type="curve" smooth="yes"/>
      <point x="185" y="587"/>
      <point x="177" y="595"/>
      <point x="165" y="595" type="curve" smooth="yes"/>
    </contour>
    <contour>
      <point x="293" y="595"/>
      <point x="285" y="587"/>
      <point x="285" y="575" type="curve" smooth="yes"/>
      <point x="285" y="563"/>
      <point x="293" y="555"/>
      <point x="305" y="555" type="curve" smooth="yes"/>
      <point x="317" y="555"/>
      <point x="325" y="563"/>
      <point x="325" y="575" type="curve" smooth="yes"/>
      <point x="325" y="587"/>
      <point x="317" y="595"/>
      <point x="305" y="595" type="curve" smooth="yes"/>
    </contour>
    <contour>
      <point x="223" y="452" type="move" name="_top"/>
    </contour>
  </outline>
</glyph>
<glyph name="dieresisgrave" format="1">
  <advance width="390"/>
  <outline>
    <contour>
      <point x="166" y="733" type="line"/>
      <point x="159" y="720" type="line"/>
      <point x="162" y="715" type="line"/>
      <point x="223" y="692"/>
      <point x="281" y="673"/>
      <point x="341" y="654" type="curve"/>
      <point x="347" y="658" type="line"/>
      <point x="353" y="674" type="line"/>
      <point x="297" y="690"/>
      <point x="239" y="709"/>
      <point x="170" y="736" type="curve"/>
    </contour>
    <contour>
      <point x="152" y="595"/>
      <point x="142" y="586"/>
      <point x="142" y="572" type="curve" smooth="yes"/>
      <point x="142" y="562"/>
      <point x="149" y="555"/>
      <point x="160" y="555" type="curve" smooth="yes"/>
      <point x="173" y="555"/>
      <point x="183" y="564"/>
      <point x="183" y="578" type="curve" smooth="yes"/>
      <point x="183" y="588"/>
      <point x="176" y="595"/>
      <point x="165" y="595" type="curve" smooth="yes"/>
    </contour>
    <contour>
      <point x="292" y="595"/>
      <point x="282" y="586"/>
      <point x="282" y="572" type="curve" smooth="yes"/>
      <point x="282" y="562"/>
      <point x="289" y="555"/>
      <point x="300" y="555" type="curve" smooth="yes"/>
      <point x="313" y="555"/>
      <point x="323" y="564"/>
      <point x="323" y="578" type="curve" smooth="yes"/>
      <point x="323" y="588"/>
      <point x="316" y="595"/>
      <point x="305" y="595" type="curve" smooth="yes"/>
    </contour>
    <contour>
      <point x="226" y="452" type="move" name="_top"/>
    </contour>
  </outline>
</glyph>
<glyph name="e.sups" format="1">
  <advance width="250"/>
  <outline>
    <contour>
      <point x="87" y="461" type="line"/>
      <point x="203" y="501"/>
      <point x="259" y="548"/>
      <point x="259" y="597" type="curve" smooth="yes"/>
      <point x="259" y="624"/>
      <point x="242" y="641"/>
      <point x="208" y="644" type="curve"/>
      <point x="204" y="644" type="line"/>
      <point x="129" y="641"/>
      <point x="72" y="559"/>
      <point x="72" y="445" type="curve"/>
      <point x="72" y="384"/>
      <point x="90" y="352"/>
      <point x="138" y="347" type="curve"/>
      <point x="144" y="347" type="line"/>
      <point x="185" y="352"/>
      <point x="215" y="375"/>
      <point x="241" y="418" type="curve"/>
      <point x="234" y="427" type="line"/>
      <point x="229" y="428" type="line"/>
      <point x="205" y="387"/>
      <point x="176" y="364"/>
      <point x="143" y="364" type="curve" smooth="yes"/>
      <point x="109" y="364"/>
      <point x="92" y="391"/>
      <point x="92" y="450" type="curve" smooth="yes"/>
      <point x="92" y="552"/>
      <point x="141" y="626"/>
      <point x="203" y="626" type="curve" smooth="yes"/>
      <point x="228" y="626"/>
      <point x="240" y="613"/>
      <point x="240" y="594" type="curve" smooth="yes"/>
      <point x="240" y="554"/>
      <point x="185" y="512"/>
      <point x="87" y="478" type="curve"/>
    </contour>
    <contour>
      <point x="9" y="0" type="move" name="bottom"/>
    </contour>
    <contour>
      <point x="9" y="0" type="move" name="ogonek"/>
    </contour>
    <contour>
      <point x="9" y="0" type="move" name="top"/>
    </contour>
  </outline>
</glyph>
<glyph name="f.f" format="1">
  <advance width="249"/>
  <outline>
    <contour>
      <point x="221" y="682"/>
      <point x="170" y="630"/>
      <point x="157" y="528" type="curve" smooth="yes"/>
      <point x="114" y="190" type="line"/>
      <point x="73" y="-134" type="line"/>
      <point x="98" y="-130" type="line"/>
      <point x="107" y="-24" type="line"/>
      <point x="134" y="192" type="line"/>
      <point x="177" y="528" type="line" smooth="yes"/>
      <point x="188" y="616"/>
      <point x="230" y="662"/>
      <point x="299" y="662" type="curve" smooth="yes"/>
      <point x="323" y="662"/>
      <point x="347" y="655"/>
      <point x="368" y="647" type="curve"/>
      <point x="374" y="647" type="line"/>
      <point x="381" y="667" type="line"/>
      <point x="379" y="670" type="line"/>
      <point x="305" y="682" type="line"/>
    </contour>
    <contour>
      <point x="75" y="449" type="line"/>
      <point x="71" y="433" type="line"/>
      <point x="75" y="429" type="line"/>
      <point x="402" y="429" type="line"/>
      <point x="406" y="445" type="line"/>
      <point x="403" y="449" type="line"/>
    </contour>
    <contour>
      <point x="188" y="0" type="move" name="bottom"/>
    </contour>
    <contour>
      <point x="295" y="749" type="move" name="top"/>
    </contour>
  </outline>
</glyph>
<glyph name="five.dnom" format="1">
  <advance width="288"/>
  <outline>
    <contour>
      <point x="214" y="369" type="line"/>
      <point x="122" y="369" type="line"/>
      <point x="89" y="370" type="line"/>
      <point x="82" y="364" type="line"/>
      <point x="60" y="215" type="line"/>
      <point x="63" y="211" type="line"/>
      <point x="112" y="200" type="line" smooth="yes"/>
      <point x="178" y="185"/>
      <point x="210" y="162"/>
      <point x="210" y="124" type="curve" smooth="yes"/>
      <point x="210" y="60"/>
      <point x="149" y="15"/>
      <point x="65" y="15" type="curve" smooth="yes"/>
      <point x="50" y="15"/>
      <point x="32" y="17"/>
      <point x="12" y="20" type="curve"/>
      <point x="10" y="18" type="line"/>
      <point x="11" y="2" type="line"/>
      <point x="29" y="-1"/>
      <point x="47" y="-3"/>
      <point x="61" y="-3" type="curve" smooth="yes"/>
      <point x="160" y="-3"/>
      <point x="230" y="51"/>
      <point x="230" y="127" type="curve" smooth="yes"/>
      <point x="230" y="173"/>
      <point x="195" y="202"/>
      <point x="123" y="218" type="curve" smooth="yes"/>
      <point x="80" y="228" type="line"/>
      <point x="99" y="351" type="line"/>
      <point x="225" y="351" type="line"/>
      <point x="255" y="349" type="line"/>
      <point x="258" y="351" type="line"/>
      <point x="262" y="368" type="line"/>
      <point x="260" y="370" type="line"/>
    </contour>
  </outline>
</glyph>
<glyph name="hookabove" format="1">
  <advance width="390"/>
  <outline>
    <contour>
      <point x="237" y="677"/>
      <point x="214" y="667"/>
      <point x="192" y="648" type="curve"/>
      <point x="200" y="634" type="line"/>
      <point x="218" y="649"/>
      <point x="238" y="657"/>
      <point x="254" y="657" type="curve" smooth="yes"/>
      <point x="270" y="657"/>
      <point x="280" y="649"/>
      <point x="280" y="637" type="curve" smooth="yes"/>
      <point x="280" y="622"/>
      <point x="262" y="601"/>
      <point x="229" y="579" type="curve"/>
      <point x="251" y="538" type="line"/>
      <point x="268" y="545" type="line"/>
      <point x="252" y="574" type="line"/>
      <point x="283" y="597"/>
      <point x="300" y="619"/>
      <point x="300" y="639" type="curve" smooth="yes"/>
      <point x="300" y="660"/>
      <point x="282" y="677"/>
      <point x="256" y="677" type="curve" smooth="yes"/>
    </contour>
    <contour>
      <point x="249" y="452" type="move" name="_top"/>
    </contour>
  </outline>
</glyph>
<glyph name="i.sups" format="1">
  <advance width="148"/>
  <outline>
    <contour>
      <point x="135" y="643" type="line"/>
      <point x="112" y="640" type="line"/>
      <point x="109" y="581" type="line"/>
      <point x="77" y="347" type="line"/>
      <point x="102" y="350" type="line"/>
      <point x="106" y="418" type="line"/>
      <point x="135" y="643" type="line"/>
    </contour>
    <contour>
      <point x="129" y="764"/>
      <point x="121" y="757"/>
      <point x="121" y="745" type="curve" smooth="yes"/>
      <point x="121" y="737"/>
      <point x="127" y="731"/>
      <point x="136" y="731" type="curve" smooth="yes"/>
      <point x="147" y="731"/>
      <point x="155" y="739"/>
      <point x="155" y="750" type="curve" smooth="yes"/>
      <point x="155" y="759"/>
      <point x="149" y="764"/>
      <point x="139" y="764" type="curve" smooth="yes"/>
    </contour>
    <contour>
      <point x="9" y="0" type="move" name="_top"/>
    </contour>
    <contour>
      <point x="9" y="0" type="move" name="ogonek"/>
    </contour>
    <contour>
      <point x="9" y="0" type="move" name="top"/>
    </contour>
  </outline>
</glyph>
<glyph name="o.sups" format="1">
  <advance width="282"/>
  <outline>
    <contour>
      <point x="207" y="644" type="line"/>
      <point x="122" y="642"/>
      <point x="71" y="555"/>
      <point x="71" y="439" type="curve" smooth="yes"/>
      <point x="71" y="378"/>
      <point x="92" y="349"/>
      <point x="138" y="346" type="curve"/>
      <point x="142" y="346" type="line"/>
      <point x="226" y="351"/>
      <point x="276" y="436"/>
      <point x="276" y="553" type="curve" smooth="yes"/>
      <point x="276" y="612"/>
      <point x="256" y="640"/>
      <point x="210" y="644" type="curve"/>
      <point x="207" y="644" type="line"/>
    </contour>
    <contour>
      <point x="241" y="626"/>
      <point x="256" y="602"/>
      <point x="256" y="550" type="curve" smooth="yes"/>
      <point x="256" y="443"/>
      <point x="211" y="364"/>
      <point x="143" y="364" type="curve" smooth="yes"/>
      <point x="107" y="364"/>
      <point x="91" y="388"/>
      <point x="91" y="441" type="curve" smooth="yes"/>
      <point x="91" y="547"/>
      <point x="136" y="626"/>
      <point x="205" y="626" type="curve" smooth="yes"/>
    </contour>
  </outline>
</glyph>
<glyph name="one.lf" format="1">
  <advance width="338"/>
  <outline>
    <contour>
      <point x="55" y="540" type="line"/>
      <point x="53" y="524" type="line"/>
      <point x="57" y="521" type="line"/>
      <point x="212" y="566" type="line"/>
      <point x="167" y="201" type="line"/>
      <point x="142" y="0" type="line"/>
      <point x="162" y="0" type="line"/>
      <point x="188" y="206" type="line"/>
      <point x="235" y="589" type="line"/>
      <point x="231" y="593" type="line"/>
    </contour>
  </outline>
</glyph>
<glyph name="one.tosf" format="1">
  <advance width="475"/>
  <outline>
    <contour>
      <point x="78" y="440" type="line"/>
      <point x="76" y="424" type="line"/>
      <point x="81" y="421" type="line"/>
      <point x="273" y="466" type="line"/>
      <point x="240" y="201" type="line"/>
      <point x="216" y="0" type="line"/>
      <point x="235" y="0" type="line"/>
      <point x="261" y="206" type="line"/>
      <point x="295" y="489" type="line"/>
      <point x="291" y="493" type="line"/>
    </contour>
  </outline>
</glyph>
<glyph name="ringacute" format="1">
  <advance width="390"/>
  <outline>
    <contour>
      <point x="190" y="646"/>
      <point x="162" y="616"/>
      <point x="162" y="577" type="curve" smooth="yes"/>
      <point x="162" y="533"/>
      <point x="197" y="507"/>
      <point x="232" y="507" type="curve" smooth="yes"/>
      <point x="267" y="507"/>
      <point x="303" y="532"/>
      <point x="303" y="576" type="curve" smooth="yes"/>
      <point x="303" y="611"/>
      <point x="278" y="646"/>
      <point x="232" y="646" type="curve" smooth="yes"/>
    </contour>
    <contour>
      <point x="266" y="626"/>
      <point x="283" y="603"/>
      <point x="283" y="576" type="curve" smooth="yes"/>
      <point x="283" y="544"/>
      <point x="259" y="527"/>
      <point x="232" y="527" type="curve" smooth="yes"/>
      <point x="205" y="527"/>
      <point x="182" y="545"/>
      <point x="182" y="577" type="curve" smooth="yes"/>
      <point x="182" y="606"/>
      <point x="201" y="626"/>
      <point x="232" y="626" type="curve" smooth="yes"/>
    </contour>
    <contour>
      <point x="282" y="720"/>
      <point x="221" y="701"/>
      <point x="164" y="685" type="curve"/>
      <point x="168" y="669" type="line"/>
      <point x="172" y="665" type="line"/>
      <point x="236" y="685"/>
      <point x="296" y="704"/>
      <point x="360" y="727" type="curve"/>
      <point x="363" y="731" type="line"/>
      <point x="358" y="744" type="line"/>
      <point x="353" y="747" type="line"/>
    </contour>
    <contour>
      <point x="223" y="452" type="move" name="_top"/>
    </contour>
  </outline>
</glyph>
<glyph name="six.dnom" format="1">
  <advance width="323"/>
  <outline>
    <contour>
      <point x="263" y="373" type="line"/>
      <point x="131" y="329"/>
      <point x="47" y="242"/>
      <point x="33" y="130" type="curve"/>
      <point x="23" y="44"/>
      <point x="60" y="-4"/>
      <point x="133" y="-4" type="curve"/>
      <point x="211" y="-4"/>
      <point x="256" y="38"/>
      <point x="265" y="111" type="curve"/>
      <point x="273" y="176"/>
      <point x="238" y="213"/>
      <point x="172" y="213" type="curve" smooth="yes"/>
      <point x="133" y="213"/>
      <point x="98" y="199"/>
      <point x="65" y="177" type="curve"/>
      <point x="61" y="182" type="line"/>
      <point x="53" y="152" type="line"/>
      <point x="87" y="179"/>
      <point x="127" y="195"/>
      <point x="167" y="195" type="curve" smooth="yes"/>
      <point x="222" y="195"/>
      <point x="251" y="165"/>
      <point x="245" y="110" type="curve"/>
      <point x="237" y="48"/>
      <point x="198" y="13"/>
      <point x="134" y="13" type="curve"/>
      <point x="72" y="13"/>
      <point x="44" y="55"/>
      <point x="53" y="131" type="curve"/>
      <point x="66" y="237"/>
      <point x="142" y="316"/>
      <point x="275" y="360" type="curve"/>
      <point x="276" y="363" type="line"/>
      <point x="266" y="373" type="line"/>
    </contour>
  </outline>
</glyph>
<glyph name="tilde.i" format="1">
  <advance width="390"/>
  <outline>
    <contour>
      <point x="352" y="628" type="line"/>
      <point x="328" y="605"/>
      <point x="316" y="588"/>
      <point x="306" y="588" type="curve"/>
      <point x="284" y="588"/>
      <point x="202" y="622"/>
      <point x="169" y="626" type="curve"/>
      <point x="163" y="624" type="line"/>
      <point x="116" y="577" type="line"/>
      <point x="116" y="573" type="line"/>
      <point x="125" y="562" type="line"/>
      <point x="128" y="562" type="line"/>
      <point x="152" y="586"/>
      <point x="164" y="602"/>
      <point x="174" y="602" type="curve"/>
      <point x="196" y="602"/>
      <point x="278" y="568"/>
      <point x="311" y="564" type="curve"/>
      <point x="317" y="566" type="line"/>
      <point x="364" y="613" type="line"/>
      <point x="364" y="617" type="line"/>
      <point x="355" y="628" type="line"/>
    </contour>
    <contour>
      <point x="223" y="452" type="move" name="_top"/>
    </contour>
  </outline>
</glyph>
<glyph name="up" format="1">
  <advance width="401"/>
  <outline>
    <contour>
      <point x="66" y="106" type="line"/>
      <point x="336" y="106" type="line"/>
      <point x="201" y="376" type="line"/>
    </contour>
  </outline>
</glyph>
